# xmcd
#
# Track frame offsets: 
#        150
#        2008
#        36260
#        63618
#        102626
#        138591
#        168820
#        194368
#        211853
#        227722
#
# Disc length: 3623 seconds
#
# Revision: 0
# Processed by: cddbd v1.5.2PL0 Copyright (c) Steve Scherf et al.
# Submitted via: ExactAudioCopy v0.99pb5
#
DISCID=890e250a
DTITLE=Michael Angelo Batio - Hands without Shadows 2- Voices
DYEAR=2009
DGENRE=Metal
TTITLE0=Dial in that Frequency
TTITLE1=Tribute to Dimebag
TTITLE2=Clapton is God
TTITLE3=Metallica Rules
TTITLE4=EVH
TTITLE5=Symphony of Destruction
TTITLE6=For Jimi: All Along the Watchtower
TTITLE7=Tribute to Randy 2: You Can´t Kill Rock and Roll
TTITLE8=On The Double
TTITLE9=MAB Forum Shreddathon
EXTD=
EXTT0=
EXTT1=
EXTT2=
EXTT3=
EXTT4=
EXTT5=
EXTT6=
EXTT7=
EXTT8=
EXTT9=
PLAYORDER=
